# xmcd CD database file
#
# Track frame offsets:
#	150
#	14862
#	28131
#	43589
#	58858
#	73815
#	88911
#	105679
#	120294
#	135001
#	150285
#	162734
#	176036
#	196108
#
# Disc length: 2841 seconds
#
# Revision: 0
# Processed by: cddbd v1.5.2PL0 Copyright (c) Steve Scherf et al.
# Submitted via: CDex 1.72
#
DISCID=bd0b170e
DTITLE=Hard Ryde [CDN-01-Step By Step-cty) - Step By Step
DYEAR=2001
DGENRE=Country
TTITLE0=Second Thoughts
TTITLE1=Stinky Red Shoes
TTITLE2=Step By Step
TTITLE3=Constant Fears
TTITLE4=Oh Sarah
TTITLE5=Loved Again
TTITLE6=Soldier's Promise
TTITLE7=My Old Heart
TTITLE8=Big Cherokee
TTITLE9=The Swimming Hole
TTITLE10=Setting Sun
TTITLE11=Enough Is Enough
TTITLE12=Friends
TTITLE13=Aches And Pains
EXTD=YEAR: 2001
EXTT0=
EXTT1=
EXTT2=
EXTT3=
EXTT4=
EXTT5=
EXTT6=
EXTT7=
EXTT8=
EXTT9=
EXTT10=
EXTT11=
EXTT12=
EXTT13=
PLAYORDER=
